<?xml version="1.0" standalone="no"?>
<!DOCTYPE svg PUBLIC "-//W3C//DTD SVG 20010904//EN"
 "http://www.w3.org/TR/2001/REC-SVG-20010904/DTD/svg10.dtd">
<svg version="1.0" xmlns="http://www.w3.org/2000/svg"
 width="500.000000pt" height="500.000000pt" viewBox="0 0 500.000000 500.000000"
 preserveAspectRatio="xMidYMid meet">

<g transform="translate(0.000000,500.000000) scale(0.100000,-0.100000)"
fill="#000000" stroke="none">
<path d="M1925 3191 c-54 -25 -92 -62 -115 -113 -19 -41 -20 -71 -20 -578 0
-496 2 -538 19 -575 24 -52 90 -111 140 -125 28 -7 213 -10 575 -8 l534 3 43
30 c24 17 57 50 74 74 l30 43 0 558 0 558 -30 43 c-17 24 -50 57 -74 74 l-43
30 -546 2 c-515 3 -549 2 -587 -16z m494 -256 c16 -8 31 -22 35 -30 3 -9 6
-83 6 -164 0 -147 0 -149 -26 -175 -26 -26 -28 -26 -171 -26 -80 0 -153 5
-164 10 -39 21 -49 62 -49 197 1 194 9 202 208 203 98 0 140 -4 161 -15z m419
0 c130 -55 165 -227 68 -333 -63 -70 -186 -83 -265 -28 -49 34 -91 113 -91
170 0 47 27 110 60 145 54 56 155 76 228 46z m-456 -650 c54 -93 97 -179 96
-190 -3 -19 -11 -20 -218 -20 -211 0 -215 0 -218 21 -2 17 153 304 191 352 26
33 50 7 149 -163z m309 108 l70 -67 68 68 c72 72 92 78 118 39 15 -22 12 -26
-51 -91 -36 -38 -66 -72 -66 -77 0 -5 29 -39 65 -76 36 -37 65 -72 65 -78 0
-14 -37 -51 -51 -51 -6 0 -41 29 -78 65 -37 36 -73 65 -79 65 -6 0 -19 -10
-29 -23 -10 -12 -39 -42 -65 -66 -52 -48 -83 -49 -94 -4 -6 21 3 35 62 94 l68
68 -67 70 c-66 68 -79 95 -55 119 24 24 51 11 119 -55z"/>
<path d="M2140 2745 l0 -115 120 0 120 0 0 115 0 115 -120 0 -120 0 0 -115z"/>
<path d="M2688 2837 c-91 -77 -43 -207 77 -207 26 0 45 9 73 34 33 31 37 39
36 82 -1 41 -6 52 -37 81 -46 42 -107 46 -149 10z"/>
<path d="M2211 2236 c-23 -40 -41 -76 -41 -80 0 -3 41 -6 90 -6 50 0 90 2 90
5 0 11 -85 155 -92 155 -4 0 -25 -33 -47 -74z"/>
</g>
</svg>
